<svg width="73" height="73" viewBox="0 0 73 73" fill="none" xmlns="http://www.w3.org/2000/svg">
<g clip-path="url(#clip0_402_65)">
<path d="M24.2404 5.54305L24.2447 5.54186C29.1953 4.19586 33.9963 3.12695 36.6336 3.12695C39.2702 3.12695 44.0655 4.19894 49.0208 5.53689C53.3317 6.7234 57.6133 8.0137 61.862 9.40666C62.5633 9.6393 63.1851 10.0648 63.6559 10.6344C64.1274 11.2048 64.4284 11.8966 64.5245 12.6304L64.5254 12.6368C67.0906 31.906 61.1487 46.0531 54.0233 55.374L54.0156 55.384C50.9949 59.3702 47.393 62.8805 43.3304 65.7976L43.3295 65.7982C41.9846 66.7646 40.5599 67.6149 39.0709 68.3399C37.8684 68.9032 37.0395 69.127 36.6336 69.127C36.225 69.127 35.3839 68.8998 34.1824 68.3334L34.1801 68.3323C33.0004 67.7774 31.5445 66.9338 29.9281 65.7913C25.8691 62.8753 22.2703 59.3672 19.2516 55.384L19.244 55.374C12.1185 46.0531 6.17669 31.906 8.7419 12.6368L8.74264 12.6312C8.83882 11.8981 9.13983 11.207 9.61111 10.6374C10.0815 10.0688 10.7025 9.64409 11.4029 9.41195C14.3449 8.45073 19.3212 6.87254 24.2404 5.54305Z" stroke="#12D106" stroke-width="6"/>
<path d="M36.6336 17.7744C32.7414 17.7744 29.5748 20.941 29.5748 24.8332V29.0685H28.163C27.4142 29.0685 26.696 29.366 26.1665 29.8955C25.637 30.425 25.3395 31.1432 25.3395 31.8921V43.1862C25.3395 43.935 25.637 44.6532 26.1665 45.1827C26.696 45.7122 27.4142 46.0097 28.163 46.0097H45.1042C45.853 46.0097 46.5712 45.7122 47.1007 45.1827C47.6302 44.6532 47.9277 43.935 47.9277 43.1862V31.8921C47.9277 31.1432 47.6302 30.425 47.1007 29.8955C46.5712 29.366 45.853 29.0685 45.1042 29.0685H43.6924V24.8332C43.6924 20.941 40.5258 17.7744 36.6336 17.7744ZM32.3983 24.8332C32.3983 22.4982 34.2985 20.5979 36.6336 20.5979C38.9687 20.5979 40.8689 22.4982 40.8689 24.8332V29.0685H32.3983V24.8332ZM38.0454 39.9716V43.1862H35.2218V39.9716C34.7283 39.6889 34.3319 39.2633 34.0851 38.7509C33.8383 38.2385 33.7526 37.6633 33.8393 37.1012C33.9259 36.539 34.181 36.0164 34.5707 35.6021C34.9604 35.1878 35.4665 34.9014 36.0223 34.7805C36.4351 34.6893 36.8632 34.6918 37.2749 34.788C37.6866 34.8842 38.0715 35.0716 38.4011 35.3363C38.7307 35.6011 38.9968 35.9364 39.1795 36.3177C39.3623 36.6989 39.4572 37.1163 39.4571 37.5391C39.4563 38.0329 39.3254 38.5177 39.0775 38.9447C38.8297 39.3718 38.4737 39.726 38.0454 39.9716Z" fill="#12D106"/>
</g>
<defs>
<clipPath id="clip0_402_65">
<rect width="72" height="72" fill="white" transform="translate(0.633606 0.126953)"/>
</clipPath>
</defs>
</svg>
