<svg width="72" height="73" viewBox="0 0 72 73" fill="none" xmlns="http://www.w3.org/2000/svg">
<path d="M0 57.1223V63.127C0 68.091 12.0938 72.127 27 72.127C41.9062 72.127 54 68.091 54 63.127V57.1223C48.1922 61.2145 37.575 63.127 27 63.127C16.425 63.127 5.80781 61.2145 0 57.1223ZM45 18.127C59.9062 18.127 72 14.091 72 9.12695C72 4.16289 59.9062 0.126953 45 0.126953C30.0938 0.126953 18 4.16289 18 9.12695C18 14.091 30.0938 18.127 45 18.127ZM0 42.3707V49.627C0 54.591 12.0938 58.627 27 58.627C41.9062 58.627 54 54.591 54 49.627V42.3707C48.1922 47.152 37.5609 49.627 27 49.627C16.4391 49.627 5.80781 47.152 0 42.3707ZM58.5 43.9176C66.5578 42.3566 72 39.4598 72 36.127V30.1223C68.7375 32.4285 63.9422 34.0035 58.5 34.9738V43.9176ZM27 22.627C12.0938 22.627 0 27.6613 0 33.877C0 40.0926 12.0938 45.127 27 45.127C41.9062 45.127 54 40.0926 54 33.877C54 27.6613 41.9062 22.627 27 22.627ZM57.8391 30.5441C66.2766 29.0254 72 26.0441 72 22.627V16.6223C67.0078 20.152 58.4297 22.0504 49.4016 22.5004C53.55 24.5113 56.6016 27.2113 57.8391 30.5441Z" fill="#12D106"/>
</svg>
