<svg width="73" height="73" viewBox="0 0 73 73" fill="none" xmlns="http://www.w3.org/2000/svg">
<path fill-rule="evenodd" clip-rule="evenodd" d="M65.4288 58.0349C64.1904 58.0349 63.0384 58.3679 62.0208 58.9132L46.3776 43.1272C47.3712 41.7276 48.0768 40.1205 48.4032 38.3687H53.8416C54.3382 39.7766 55.2585 40.9941 56.4748 41.8521C57.6912 42.71 59.143 43.1658 60.6288 43.1561C64.608 43.1561 67.8288 40.0095 67.8288 36.1197C67.8288 32.2299 64.608 29.0833 60.6288 29.0833C59.1115 29.074 57.6305 29.5501 56.4001 30.4428C55.1696 31.3355 54.2534 32.5986 53.784 34.0493H48.4128C48.13 32.4022 47.5052 30.8335 46.5792 29.4453L62.3712 13.5096C63.3024 13.9391 64.3296 14.1997 65.4288 14.1997C69.408 14.1997 72.6288 11.0532 72.6288 7.16335C72.6288 3.27354 69.408 0.126953 65.4288 0.126953C61.4544 0.126953 58.2384 3.27354 58.2384 7.16335C58.2384 8.42295 58.5984 9.59086 59.1936 10.614L43.5648 26.3904C42.1382 25.3715 40.506 24.6811 38.784 24.3683V18.6687C41.6976 17.771 43.8288 15.1408 43.8288 11.9894C43.8288 8.09961 40.608 4.95301 36.6288 4.95301C32.6544 4.95301 29.4384 8.09961 29.4384 11.9894C29.4384 15.1505 31.5744 17.7952 34.5168 18.6832V24.3634C32.7696 24.6723 31.1568 25.3528 29.76 26.3325L14.112 10.5464C14.6784 9.53777 15.0288 8.39882 15.0288 7.16818C15.0288 3.27837 11.808 0.131779 7.82881 0.131779C3.85441 0.131779 0.638406 3.27837 0.638406 7.16818C0.638406 11.058 3.85441 14.2046 7.82881 14.2046C8.95201 14.2046 10.0128 13.9295 10.9584 13.4807L26.7264 29.3922C25.7856 30.7676 25.1424 32.3506 24.84 34.059H19.4736C19.0039 32.6074 18.087 31.3438 16.8556 30.451C15.6242 29.5583 14.1422 29.0826 12.624 29.093C8.64961 29.093 5.43361 32.2396 5.43361 36.1294C5.43361 40.0192 8.64961 43.1658 12.624 43.1658C15.792 43.1658 18.456 41.1581 19.4112 38.3783H24.8496C25.176 40.1591 25.9104 41.7903 26.9328 43.2044L11.3136 58.9663C10.2448 58.3731 9.04484 58.0595 7.82401 58.0542C3.84961 58.0542 0.633606 61.2007 0.633606 65.0906C0.633606 68.9804 3.84961 72.127 7.82401 72.127C11.8032 72.127 15.024 68.9804 15.024 65.0906C15.024 63.9999 14.7504 62.9816 14.304 62.0694L30.024 46.1965C31.3536 47.0845 32.8752 47.6878 34.512 47.9773V53.5707C31.5744 54.4587 29.4336 57.0986 29.4336 60.2645C29.4336 64.1543 32.6496 67.3009 36.624 67.3009C40.6032 67.3009 43.824 64.1543 43.824 60.2645C43.824 57.1179 41.6976 54.4829 38.7792 53.5852V47.9725C40.4304 47.6733 41.9616 47.0556 43.3008 46.1531L58.992 61.9874C58.4975 62.9465 58.2375 64.0103 58.2336 65.0906C58.2336 68.9804 61.4496 72.127 65.424 72.127C69.4032 72.127 72.624 68.9804 72.624 65.0906C72.624 61.2007 69.408 58.0349 65.4288 58.0349Z" fill="#12D106"/>
</svg>
