<svg width="73" height="73" viewBox="0 0 73 73" fill="none" xmlns="http://www.w3.org/2000/svg">
<path fill-rule="evenodd" clip-rule="evenodd" d="M6.8428 0.126953C6.0868 0.126953 5.4128 0.650956 5.1528 1.43896L0.536803 15.461C0.391054 15.9045 0.316792 16.3683 0.316803 16.835V22.4131C0.316803 25.5671 2.6188 28.1271 5.4588 28.1271C8.2988 28.1271 10.6028 25.5671 10.6028 22.4131C10.6028 25.5691 12.9048 28.1271 15.7448 28.1271C18.5848 28.1271 20.8888 25.5671 20.8888 22.4131C20.8888 25.5691 23.1908 28.1271 26.0308 28.1271C28.8708 28.1271 31.1708 25.5711 31.1748 22.4171C31.1748 25.5711 33.4768 28.1271 36.3168 28.1271C39.1568 28.1271 41.4588 25.5671 41.4588 22.4131C41.4588 25.5691 43.7628 28.1271 46.6028 28.1271C49.4428 28.1271 51.7428 25.5711 51.7448 22.4171C51.7468 25.5711 54.0488 28.1271 56.8888 28.1271C59.7288 28.1271 62.0308 25.5671 62.0308 22.4131C62.0308 25.5691 64.3328 28.1271 67.1748 28.1271C70.0148 28.1271 72.3168 25.5671 72.3168 22.4131V16.835C72.3168 16.3683 72.2426 15.9045 72.0968 15.461L67.4808 1.44096C67.2208 0.650956 66.5468 0.126953 65.7908 0.126953H6.8428Z" fill="#ffffff"/>
<path fill-rule="evenodd" clip-rule="evenodd" d="M8.31656 30.587V46.1271H3.31656C3.05134 46.1271 2.79699 46.2324 2.60945 46.42C2.42192 46.6075 2.31656 46.8618 2.31656 47.1271V49.1271C2.31656 49.3923 2.42192 49.6467 2.60945 49.8342C2.79699 50.0217 3.05134 50.1271 3.31656 50.1271H69.3166C69.5818 50.1271 69.8362 50.0217 70.0237 49.8342C70.2112 49.6467 70.3166 49.3923 70.3166 49.1271V47.1271C70.3166 46.8618 70.2112 46.6075 70.0237 46.42C69.8362 46.2324 69.5818 46.1271 69.3166 46.1271H64.3166V30.587C63.4794 30.2533 62.706 29.7777 62.0306 29.181C61.5121 29.6383 60.9358 30.0256 60.3166 30.333V46.1271H12.3166V30.333C11.6973 30.0256 11.1211 29.6383 10.6026 29.181C9.93056 29.771 9.16256 30.251 8.31656 30.587ZM60.3166 26.673C60.4866 26.503 60.6466 26.321 60.7966 26.127H60.3166V26.673ZM63.2646 26.127C63.567 26.5187 63.9208 26.8679 64.3166 27.165V26.127H63.2646ZM8.31656 27.165C8.71433 26.8702 9.06849 26.5207 9.36856 26.127H8.31656V27.165ZM11.8366 26.127H12.3166V26.673C12.1448 26.5017 11.9844 26.3193 11.8366 26.127ZM5.31656 54.1271C5.05134 54.1271 4.79699 54.2325 4.60945 54.42C4.42192 54.6075 4.31656 54.8619 4.31656 55.1271V70.1272C4.31656 70.6576 4.52727 71.1663 4.90235 71.5414C5.27742 71.9165 5.78613 72.1272 6.31656 72.1272H66.3166C66.847 72.1272 67.3557 71.9165 67.7308 71.5414C68.1059 71.1663 68.3166 70.6576 68.3166 70.1272V55.1271C68.3166 54.8619 68.2112 54.6075 68.0237 54.42C67.8362 54.2325 67.5818 54.1271 67.3166 54.1271H5.31656Z" fill="#ffffff"/>
<path d="M23.3171 40.1274H17.317C16.7648 40.1274 16.317 40.5752 16.317 41.1274V45.1275C16.317 45.6798 16.7648 46.1275 17.317 46.1275H23.3171C23.8693 46.1275 24.3171 45.6798 24.3171 45.1275V41.1274C24.3171 40.5752 23.8693 40.1274 23.3171 40.1274Z" fill="#ffffff"/>
<path d="M27.3166 42.1274H21.3166C20.7643 42.1274 20.3166 42.5752 20.3166 43.1274V45.1275C20.3166 45.6797 20.7643 46.1275 21.3166 46.1275H27.3166C27.8688 46.1275 28.3166 45.6797 28.3166 45.1275V43.1274C28.3166 42.5752 27.8688 42.1274 27.3166 42.1274Z" fill="#ffffff"/>
<path d="M33.3163 46.1275C34.9732 46.1275 36.3163 44.7843 36.3163 43.1275C36.3163 41.4706 34.9732 40.1274 33.3163 40.1274C31.6595 40.1274 30.3163 41.4706 30.3163 43.1275C30.3163 44.7843 31.6595 46.1275 33.3163 46.1275Z" fill="#ffffff"/>
</svg>
