<svg width="72" height="62" viewBox="0 0 72 62" fill="none" xmlns="http://www.w3.org/2000/svg">
<path d="M7.26172 51.0962V48.7362C7.26172 47.5017 7.84266 46.3398 8.75038 45.7952C14.8865 42.128 21.8941 40.2036 29.0469 40.2036C29.2002 40.2036 29.3573 40.1002 29.3806 39.9488C29.6806 38.0042 30.1938 36.1262 30.9037 34.3642C31.1637 33.7188 30.7437 32.9851 30.0483 32.9599C29.7189 32.9479 29.3859 32.9419 29.0469 32.9419C20.2602 32.9419 12.0545 35.3746 5.0469 39.5501C1.85174 41.4381 0 44.9964 0 48.7362V55.358C0 57.0148 1.34315 58.358 3 58.358H31.7011C32.5102 58.358 32.994 57.4399 32.5825 56.7434C31.6686 55.1961 30.9091 53.534 30.326 51.8009C30.1858 51.3841 29.7995 51.0962 29.3598 51.0962H7.26172ZM29.0469 29.3111C37.0711 29.3111 43.5704 22.8118 43.5704 14.7876C43.5704 6.7634 37.0711 0.26416 29.0469 0.26416C21.0227 0.26416 14.5234 6.7634 14.5234 14.7876C14.5234 22.8118 21.0227 29.3111 29.0469 29.3111ZM29.0469 7.52589C33.0408 7.52589 36.3086 10.7937 36.3086 14.7876C36.3086 18.7816 33.0408 22.0493 29.0469 22.0493C25.053 22.0493 21.7852 18.7816 21.7852 14.7876C21.7852 10.7937 25.053 7.52589 29.0469 7.52589ZM68.0787 43.8345C68.0787 43.0357 67.9697 42.3095 67.8608 41.5471L72 37.8799L68.3691 31.5985L63.1044 33.3776C61.9425 32.3973 60.6354 31.6348 59.1831 31.0902L58.0938 25.6802H50.8321L49.7428 31.0902C48.2905 31.6348 46.9834 32.3973 45.8215 33.3776L40.5567 31.5985L36.9259 37.8799L41.0651 41.5471C40.9561 42.3095 40.8472 43.0357 40.8472 43.8345C40.8472 44.6333 40.9561 45.3595 41.0651 46.1219L36.9259 49.7891L40.5567 56.0705L45.8215 54.2914C46.9834 55.2717 48.2905 56.0342 49.7428 56.5788L50.8321 61.9888H58.0938L59.1831 56.5788C60.6354 56.0342 61.9425 55.2717 63.1044 54.2914L68.3691 56.0705L72 49.7891L67.8608 46.1219C67.9697 45.3595 68.0787 44.6333 68.0787 43.8345ZM54.4629 51.0962C50.469 51.0962 47.2012 47.8285 47.2012 43.8345C47.2012 39.8406 50.469 36.5728 54.4629 36.5728C58.4569 36.5728 61.7247 39.8406 61.7247 43.8345C61.7247 47.8285 58.4569 51.0962 54.4629 51.0962Z" fill="#ffffff"/>
</svg>
