<svg id="visual" viewBox="0 0 900 600" width="900" height="600" xmlns="http://www.w3.org/2000/svg" xmlns:xlink="http://www.w3.org/1999/xlink" version="1.1"><path d="M0 25L18.8 28C37.7 31 75.3 37 112.8 38C150.3 39 187.7 35 225.2 32C262.7 29 300.3 27 337.8 29C375.3 31 412.7 37 450.2 38C487.7 39 525.3 35 562.8 33C600.3 31 637.7 31 675.2 29C712.7 27 750.3 23 787.8 23C825.3 23 862.7 27 881.3 29L900 31L900 0L881.3 0C862.7 0 825.3 0 787.8 0C750.3 0 712.7 0 675.2 0C637.7 0 600.3 0 562.8 0C525.3 0 487.7 0 450.2 0C412.7 0 375.3 0 337.8 0C300.3 0 262.7 0 225.2 0C187.7 0 150.3 0 112.8 0C75.3 0 37.7 0 18.8 0L0 0Z" fill="#0d7e06"></path><path d="M0 169L18.8 171C37.7 173 75.3 177 112.8 178C150.3 179 187.7 177 225.2 171C262.7 165 300.3 155 337.8 151C375.3 147 412.7 149 450.2 145C487.7 141 525.3 131 562.8 149C600.3 167 637.7 213 675.2 216C712.7 219 750.3 179 787.8 161C825.3 143 862.7 147 881.3 149L900 151L900 29L881.3 27C862.7 25 825.3 21 787.8 21C750.3 21 712.7 25 675.2 27C637.7 29 600.3 29 562.8 31C525.3 33 487.7 37 450.2 36C412.7 35 375.3 29 337.8 27C300.3 25 262.7 27 225.2 30C187.7 33 150.3 37 112.8 36C75.3 35 37.7 29 18.8 26L0 23Z" fill="#09851d"></path><path d="M0 277L18.8 276C37.7 275 75.3 273 112.8 264C150.3 255 187.7 239 225.2 231C262.7 223 300.3 223 337.8 219C375.3 215 412.7 207 450.2 207C487.7 207 525.3 215 562.8 234C600.3 253 637.7 283 675.2 286C712.7 289 750.3 265 787.8 246C825.3 227 862.7 213 881.3 206L900 199L900 149L881.3 147C862.7 145 825.3 141 787.8 159C750.3 177 712.7 217 675.2 214C637.7 211 600.3 165 562.8 147C525.3 129 487.7 139 450.2 143C412.7 147 375.3 145 337.8 149C300.3 153 262.7 163 225.2 169C187.7 175 150.3 177 112.8 176C75.3 175 37.7 171 18.8 169L0 167Z" fill="#068c2d"></path><path d="M0 307L18.8 306C37.7 305 75.3 303 112.8 296C150.3 289 187.7 277 225.2 272C262.7 267 300.3 269 337.8 261C375.3 253 412.7 235 450.2 235C487.7 235 525.3 253 562.8 272C600.3 291 637.7 311 675.2 311C712.7 311 750.3 291 787.8 273C825.3 255 862.7 239 881.3 231L900 223L900 197L881.3 204C862.7 211 825.3 225 787.8 244C750.3 263 712.7 287 675.2 284C637.7 281 600.3 251 562.8 232C525.3 213 487.7 205 450.2 205C412.7 205 375.3 213 337.8 217C300.3 221 262.7 221 225.2 229C187.7 237 150.3 253 112.8 262C75.3 271 37.7 273 18.8 274L0 275Z" fill="#03933c"></path><path d="M0 343L18.8 344C37.7 345 75.3 347 112.8 345C150.3 343 187.7 337 225.2 331C262.7 325 300.3 319 337.8 307C375.3 295 412.7 277 450.2 275C487.7 273 525.3 287 562.8 305C600.3 323 637.7 345 675.2 350C712.7 355 750.3 343 787.8 326C825.3 309 862.7 287 881.3 276L900 265L900 221L881.3 229C862.7 237 825.3 253 787.8 271C750.3 289 712.7 309 675.2 309C637.7 309 600.3 289 562.8 270C525.3 251 487.7 233 450.2 233C412.7 233 375.3 251 337.8 259C300.3 267 262.7 265 225.2 270C187.7 275 150.3 287 112.8 294C75.3 301 37.7 303 18.8 304L0 305Z" fill="#009a49"></path><path d="M0 373L18.8 375C37.7 377 75.3 381 112.8 382C150.3 383 187.7 381 225.2 373C262.7 365 300.3 351 337.8 337C375.3 323 412.7 309 450.2 308C487.7 307 525.3 319 562.8 338C600.3 357 637.7 383 675.2 391C712.7 399 750.3 389 787.8 371C825.3 353 862.7 327 881.3 314L900 301L900 263L881.3 274C862.7 285 825.3 307 787.8 324C750.3 341 712.7 353 675.2 348C637.7 343 600.3 321 562.8 303C525.3 285 487.7 271 450.2 273C412.7 275 375.3 293 337.8 305C300.3 317 262.7 323 225.2 329C187.7 335 150.3 341 112.8 343C75.3 345 37.7 343 18.8 342L0 341Z" fill="#00a056"></path><path d="M0 421L18.8 428C37.7 435 75.3 449 112.8 451C150.3 453 187.7 443 225.2 433C262.7 423 300.3 413 337.8 402C375.3 391 412.7 379 450.2 378C487.7 377 525.3 387 562.8 401C600.3 415 637.7 433 675.2 439C712.7 445 750.3 439 787.8 423C825.3 407 862.7 381 881.3 368L900 355L900 299L881.3 312C862.7 325 825.3 351 787.8 369C750.3 387 712.7 397 675.2 389C637.7 381 600.3 355 562.8 336C525.3 317 487.7 305 450.2 306C412.7 307 375.3 321 337.8 335C300.3 349 262.7 363 225.2 371C187.7 379 150.3 381 112.8 380C75.3 379 37.7 375 18.8 373L0 371Z" fill="#00a763"></path><path d="M0 505L18.8 510C37.7 515 75.3 525 112.8 530C150.3 535 187.7 535 225.2 534C262.7 533 300.3 531 337.8 528C375.3 525 412.7 521 450.2 519C487.7 517 525.3 517 562.8 521C600.3 525 637.7 533 675.2 535C712.7 537 750.3 533 787.8 530C825.3 527 862.7 525 881.3 524L900 523L900 353L881.3 366C862.7 379 825.3 405 787.8 421C750.3 437 712.7 443 675.2 437C637.7 431 600.3 413 562.8 399C525.3 385 487.7 375 450.2 376C412.7 377 375.3 389 337.8 400C300.3 411 262.7 421 225.2 431C187.7 441 150.3 451 112.8 449C75.3 447 37.7 433 18.8 426L0 419Z" fill="#00ae70"></path><path d="M0 541L18.8 545C37.7 549 75.3 557 112.8 559C150.3 561 187.7 557 225.2 555C262.7 553 300.3 553 337.8 552C375.3 551 412.7 549 450.2 548C487.7 547 525.3 547 562.8 549C600.3 551 637.7 555 675.2 557C712.7 559 750.3 559 787.8 557C825.3 555 862.7 551 881.3 549L900 547L900 521L881.3 522C862.7 523 825.3 525 787.8 528C750.3 531 712.7 535 675.2 533C637.7 531 600.3 523 562.8 519C525.3 515 487.7 515 450.2 517C412.7 519 375.3 523 337.8 526C300.3 529 262.7 531 225.2 532C187.7 533 150.3 533 112.8 528C75.3 523 37.7 513 18.8 508L0 503Z" fill="#00b47d"></path><path d="M0 601L18.8 601C37.7 601 75.3 601 112.8 601C150.3 601 187.7 601 225.2 601C262.7 601 300.3 601 337.8 601C375.3 601 412.7 601 450.2 601C487.7 601 525.3 601 562.8 601C600.3 601 637.7 601 675.2 601C712.7 601 750.3 601 787.8 601C825.3 601 862.7 601 881.3 601L900 601L900 545L881.3 547C862.7 549 825.3 553 787.8 555C750.3 557 712.7 557 675.2 555C637.7 553 600.3 549 562.8 547C525.3 545 487.7 545 450.2 546C412.7 547 375.3 549 337.8 550C300.3 551 262.7 551 225.2 553C187.7 555 150.3 559 112.8 557C75.3 555 37.7 547 18.8 543L0 539Z" fill="#00bb89"></path></svg>