<?xml version="1.0" standalone="no"?>
<!DOCTYPE svg PUBLIC "-//W3C//DTD SVG 20010904//EN"
 "http://www.w3.org/TR/2001/REC-SVG-20010904/DTD/svg10.dtd">
<svg version="1.0" xmlns="http://www.w3.org/2000/svg"
 width="588.000000pt" height="1172.000000pt" viewBox="0 0 588.000000 1172.000000"
 preserveAspectRatio="xMidYMid meet">

<g transform="translate(0.000000,1172.000000) scale(0.100000,-0.100000)"
fill="#000000" stroke="none">
<path d="M863 11709 c-349 -41 -600 -219 -723 -515 -66 -159 -72 -214 -77
-656 -5 -380 -6 -397 -24 -403 -17 -6 -19 -16 -18 -78 1 -63 2 -67 8 -30 15
88 21 51 20 -113 0 -93 -3 -163 -6 -156 -8 21 -23 2 -23 -30 0 -21 6 -31 20
-35 19 -5 20 -14 20 -193 0 -155 -3 -190 -15 -200 -23 -19 -23 -838 0 -846 22
-9 22 -222 0 -230 -23 -9 -23 -839 0 -848 13 -5 15 -394 18 -3288 l2 -3283 21
-90 c44 -187 129 -340 253 -458 113 -106 241 -171 421 -211 93 -21 110 -21
1005 -19 501 1 1040 5 1199 8 193 4 293 2 300 -5 13 -13 1690 -13 1796 0 240
30 414 112 553 259 116 123 192 287 216 464 8 54 11 1124 11 3493 0 3026 2
3415 15 3420 13 5 15 90 15 674 0 581 -2 669 -15 680 -13 11 -15 129 -15 951
0 610 -4 965 -11 1016 -24 177 -100 341 -216 464 -141 149 -317 231 -559 259
-109 12 -4084 12 -4191 -1z m4138 -49 l76 -25 -2056 3 c-2138 3 -2158 3 -2315
-38 -39 -11 -72 -17 -74 -16 -2 2 8 13 22 24 14 10 23 22 21 26 -3 3 -2 4 2 1
3 -3 11 -1 17 4 18 14 108 32 203 40 48 5 974 8 2058 7 l1970 -1 76 -25z
m-3517 -294 c38 -16 41 -24 51 -111 15 -137 58 -205 162 -257 l68 -33 1185 0
1185 0 63 29 c103 48 157 127 168 248 3 34 10 75 16 90 17 47 52 51 357 45
303 -5 376 -16 484 -74 121 -65 214 -192 254 -349 17 -66 18 -319 18 -5084 0
-4765 -1 -5018 -18 -5084 -56 -218 -191 -353 -405 -403 -73 -17 -184 -18
-2127 -18 -1929 0 -2054 1 -2119 18 -217 55 -348 186 -403 403 -17 66 -18 319
-18 5084 0 4765 1 5018 18 5084 50 197 159 321 337 382 96 34 177 41 453 43
184 1 245 -2 271 -13z m4323 -672 c5 -87 5 -91 -16 -97 -20 -5 -21 -2 -21 101
0 59 -2 132 -5 162 l-5 55 20 -65 c11 -36 23 -106 27 -156z m3 -4824 c0 -4628
0 -4638 -20 -4643 -11 -3 -23 -1 -26 5 -4 5 -3 2097 1 4648 7 4521 8 4637 26
4633 19 -5 19 -123 19 -4643z m-5670 -184 c0 -4070 -1 -4468 -16 -4462 -9 3
-20 6 -25 6 -5 0 -8 1734 -7 4423 3 3860 5 4429 18 4474 9 31 17 47 22 40 4
-7 8 -2023 8 -4481z m-80 3189 c0 -210 -4 -325 -10 -325 -6 0 -10 115 -10 325
0 210 4 325 10 325 6 0 10 -115 10 -325z m5787 -787 c-1 -139 -2 -26 -2 252 0
278 1 391 2 253 2 -139 2 -367 0 -505z m-5787 -288 c0 -207 -4 -320 -10 -320
-6 0 -10 113 -10 320 0 207 4 320 10 320 6 0 10 -113 10 -320z m5749 -6759
c-1 -160 -12 -243 -35 -273 l-20 -26 3 191 c3 106 6 197 8 204 2 6 13 9 24 6
19 -5 21 -12 20 -102z m-5669 30 c0 -38 -3 -77 -7 -87 -9 -25 -42 60 -42 114
-1 38 1 42 24 42 24 0 25 -2 25 -69z m2805 -972 c1100 -1 1989 -4 1975 -6 -14
-2 -52 -13 -85 -24 -59 -19 -92 -20 -1987 -17 -1525 2 -1930 6 -1940 16 -6 6
-19 12 -27 12 -9 1 -29 7 -46 16 -29 14 -27 14 40 9 39 -3 970 -6 2070 -6z"/>
</g>
</svg>
